HIERARCHY
ROOT mixamorig:Hips
{
	OFFSET 0.000000 201.639420 0.000000
	CHANNELS 6 Xposition Yposition Zposition Xrotation Yrotation Zrotation
	JOINT mixamorig:Spine
	{
		OFFSET 0.006200 19.524994 -2.481800
		CHANNELS 3 Xrotation Yrotation Zrotation
		JOINT mixamorig:Spine1
		{
			OFFSET -0.000900 22.835007 -2.825400
			CHANNELS 3 Xrotation Yrotation Zrotation
			JOINT mixamorig:Spine2
			{
				OFFSET -0.020600 26.552490 -3.193300
				CHANNELS 3 Xrotation Yrotation Zrotation
				JOINT mixamorig:Neck
				{
					OFFSET -0.060000 30.701813 1.352200
					CHANNELS 3 Xrotation Yrotation Zrotation
					JOINT mixamorig:Head
					{
						OFFSET -0.087200 22.547607 3.670900
						CHANNELS 3 Xrotation Yrotation Zrotation
						JOINT mixamorig:HeadTop_End
						{
							OFFSET -0.830600 40.355194 7.893500
							CHANNELS 3 Xrotation Yrotation Zrotation
							End Site
							{
								OFFSET 0.000000 30.592346 0.000000
							}
						}
						JOINT mixamorig:RightEye
						{
							OFFSET -6.302100 18.118591 16.197100
							CHANNELS 3 Xrotation Yrotation Zrotation
							End Site
							{
								OFFSET 0.000000 30.592346 0.000000
							}
						}
						JOINT mixamorig:LeftEye
						{
							OFFSET 6.741500 18.382690 16.401899
							CHANNELS 3 Xrotation Yrotation Zrotation
							End Site
							{
								OFFSET 0.000000 30.592346 0.000000
							}
						}
					}
				}
				JOINT mixamorig:LeftShoulder
				{
					OFFSET 11.924900 18.230499 1.425400
					CHANNELS 3 Xrotation Yrotation Zrotation
					JOINT mixamorig:LeftArm
					{
						OFFSET 25.435989 -0.697632 -5.229300
						CHANNELS 3 Xrotation Yrotation Zrotation
						JOINT mixamorig:LeftForeArm
						{
							OFFSET 54.684776 0.000000 0.000000
							CHANNELS 3 Xrotation Yrotation Zrotation
							JOINT mixamorig:LeftHand
							{
								OFFSET 55.098175 0.000000 0.000000
								CHANNELS 3 Xrotation Yrotation Zrotation
								JOINT mixamorig:LeftHandMiddle1
								{
									OFFSET 23.369751 0.000000 0.000000
									CHANNELS 3 Xrotation Yrotation Zrotation
									JOINT mixamorig:LeftHandMiddle2
									{
										OFFSET 6.378677 0.000000 0.000000
										CHANNELS 3 Xrotation Yrotation Zrotation
										JOINT mixamorig:LeftHandMiddle3
										{
											OFFSET 6.148331 0.000000 0.000000
											CHANNELS 3 Xrotation Yrotation Zrotation
											JOINT mixamorig:LeftHandMiddle4
											{
												OFFSET 6.582504 0.000000 0.000000
												CHANNELS 3 Xrotation Yrotation Zrotation
												End Site
												{
													OFFSET -1.168900 6.395691 1.028606
												}
											}
										}
									}
								}
								JOINT mixamorig:LeftHandThumb1
								{
									OFFSET 7.235672 -3.848206 5.434273
									CHANNELS 3 Xrotation Yrotation Zrotation
									JOINT mixamorig:LeftHandThumb2
									{
										OFFSET 6.568451 -3.792297 3.792300
										CHANNELS 3 Xrotation Yrotation Zrotation
										JOINT mixamorig:LeftHandThumb3
										{
											OFFSET 6.063080 -3.500519 3.500518
											CHANNELS 3 Xrotation Yrotation Zrotation
											JOINT mixamorig:LeftHandThumb4
											{
												OFFSET 4.793182 -2.767334 2.767349
												CHANNELS 3 Xrotation Yrotation Zrotation
												End Site
												{
													OFFSET 0.101639 6.054260 1.275483
												}
											}
										}
									}
								}
								JOINT mixamorig:LeftHandIndex1
								{
									OFFSET 23.101074 -0.309540 4.992809
									CHANNELS 3 Xrotation Yrotation Zrotation
									JOINT mixamorig:LeftHandIndex2
									{
										OFFSET 6.226883 0.000000 0.000000
										CHANNELS 3 Xrotation Yrotation Zrotation
										JOINT mixamorig:LeftHandIndex3
										{
											OFFSET 6.094330 0.000000 0.000000
											CHANNELS 3 Xrotation Yrotation Zrotation
											JOINT mixamorig:LeftHandIndex4
											{
												OFFSET 5.482605 0.000000 0.000000
												CHANNELS 3 Xrotation Yrotation Zrotation
												End Site
												{
													OFFSET -1.427902 5.233032 0.797164
												}
											}
										}
									}
								}
								JOINT mixamorig:LeftHandRing1
								{
									OFFSET 22.299240 0.021149 -3.964172
									CHANNELS 3 Xrotation Yrotation Zrotation
									JOINT mixamorig:LeftHandRing2
									{
										OFFSET 6.321869 0.000000 0.000000
										CHANNELS 3 Xrotation Yrotation Zrotation
										JOINT mixamorig:LeftHandRing3
										{
											OFFSET 5.899796 0.000000 0.000000
											CHANNELS 3 Xrotation Yrotation Zrotation
											JOINT mixamorig:LeftHandRing4
											{
												OFFSET 6.517899 0.000000 0.000000
												CHANNELS 3 Xrotation Yrotation Zrotation
												End Site
												{
													OFFSET -1.637299 6.232208 0.980890
												}
											}
										}
									}
								}
								JOINT mixamorig:LeftHandPinky1
								{
									OFFSET 20.463791 -0.302338 -8.562233
									CHANNELS 3 Xrotation Yrotation Zrotation
									JOINT mixamorig:LeftHandPinky2
									{
										OFFSET 6.908646 0.000000 0.000000
										CHANNELS 3 Xrotation Yrotation Zrotation
										JOINT mixamorig:LeftHandPinky3
										{
											OFFSET 4.622849 0.000000 0.000000
											CHANNELS 3 Xrotation Yrotation Zrotation
											JOINT mixamorig:LeftHandPinky4
											{
												OFFSET 5.216080 0.000000 0.000000
												CHANNELS 3 Xrotation Yrotation Zrotation
												End Site
												{
													OFFSET -0.606308 5.116241 0.814926
												}
											}
										}
									}
								}
							}
						}
					}
				}
				JOINT mixamorig:RightShoulder
				{
					OFFSET -12.001300 18.284088 1.348900
					CHANNELS 3 Xrotation Yrotation Zrotation
					JOINT mixamorig:RightArm
					{
						OFFSET -25.308500 -0.751312 -5.164599
						CHANNELS 3 Xrotation Yrotation Zrotation
						JOINT mixamorig:RightForeArm
						{
							OFFSET -54.684429 0.000000 0.000000
							CHANNELS 3 Xrotation Yrotation Zrotation
							JOINT mixamorig:RightHand
							{
								OFFSET -55.150291 0.000000 0.000000
								CHANNELS 3 Xrotation Yrotation Zrotation
								JOINT mixamorig:RightHandMiddle1
								{
									OFFSET -23.317566 0.000000 0.000000
									CHANNELS 3 Xrotation Yrotation Zrotation
									JOINT mixamorig:RightHandMiddle2
									{
										OFFSET -6.378403 0.000000 0.000000
										CHANNELS 3 Xrotation Yrotation Zrotation
										JOINT mixamorig:RightHandMiddle3
										{
											OFFSET -6.148193 0.000000 0.000000
											CHANNELS 3 Xrotation Yrotation Zrotation
											JOINT mixamorig:RightHandMiddle4
											{
												OFFSET -6.583389 0.000000 0.000000
												CHANNELS 3 Xrotation Yrotation Zrotation
												End Site
												{
													OFFSET 1.171692 6.395905 1.029786
												}
											}
										}
									}
								}
								JOINT mixamorig:RightHandThumb1
								{
									OFFSET -7.190521 -3.860474 5.435846
									CHANNELS 3 Xrotation Yrotation Zrotation
									JOINT mixamorig:RightHandThumb2
									{
										OFFSET -6.567429 -3.791718 3.791708
										CHANNELS 3 Xrotation Yrotation Zrotation
										JOINT mixamorig:RightHandThumb3
										{
											OFFSET -6.062469 -3.500153 3.500166
											CHANNELS 3 Xrotation Yrotation Zrotation
											JOINT mixamorig:RightHandThumb4
											{
												OFFSET -4.792618 -2.767029 2.767022
												CHANNELS 3 Xrotation Yrotation Zrotation
												End Site
												{
													OFFSET -0.100327 6.053253 1.276754
												}
											}
										}
									}
								}
								JOINT mixamorig:RightHandIndex1
								{
									OFFSET -23.048981 -0.310791 4.992554
									CHANNELS 3 Xrotation Yrotation Zrotation
									JOINT mixamorig:RightHandIndex2
									{
										OFFSET -6.227539 0.000000 0.000000
										CHANNELS 3 Xrotation Yrotation Zrotation
										JOINT mixamorig:RightHandIndex3
										{
											OFFSET -6.095047 0.000000 0.000000
											CHANNELS 3 Xrotation Yrotation Zrotation
											JOINT mixamorig:RightHandIndex4
											{
												OFFSET -5.484772 0.000000 0.000000
												CHANNELS 3 Xrotation Yrotation Zrotation
												End Site
												{
													OFFSET 1.420593 5.237305 0.797056
												}
											}
										}
									}
								}
								JOINT mixamorig:RightHandRing1
								{
									OFFSET -22.246323 0.020569 -3.963762
									CHANNELS 3 Xrotation Yrotation Zrotation
									JOINT mixamorig:RightHandRing2
									{
										OFFSET -6.322128 0.000000 0.000000
										CHANNELS 3 Xrotation Yrotation Zrotation
										JOINT mixamorig:RightHandRing3
										{
											OFFSET -5.900024 0.000000 0.000000
											CHANNELS 3 Xrotation Yrotation Zrotation
											JOINT mixamorig:RightHandRing4
											{
												OFFSET -6.518356 0.000000 0.000000
												CHANNELS 3 Xrotation Yrotation Zrotation
												End Site
												{
													OFFSET 1.636398 6.232697 0.982186
												}
											}
										}
									}
								}
								JOINT mixamorig:RightHandPinky1
								{
									OFFSET -20.411011 -0.303314 -8.561701
									CHANNELS 3 Xrotation Yrotation Zrotation
									JOINT mixamorig:RightHandPinky2
									{
										OFFSET -6.907349 0.000000 0.000000
										CHANNELS 3 Xrotation Yrotation Zrotation
										JOINT mixamorig:RightHandPinky3
										{
											OFFSET -4.623840 0.000000 0.000000
											CHANNELS 3 Xrotation Yrotation Zrotation
											JOINT mixamorig:RightHandPinky4
											{
												OFFSET -5.218353 0.000000 0.000000
												CHANNELS 3 Xrotation Yrotation Zrotation
												End Site
												{
													OFFSET 0.602097 5.118835 0.816273
												}
											}
										}
									}
								}
							}
						}
					}
				}
			}
		}
	}
	JOINT mixamorig:LeftUpLeg
	{
		OFFSET 18.168400 -13.561905 -0.039000
		CHANNELS 3 Xrotation Yrotation Zrotation
		JOINT mixamorig:LeftLeg
		{
			OFFSET 0.577358 -80.825211 -3.695000
			CHANNELS 3 Xrotation Yrotation Zrotation
			JOINT mixamorig:LeftFoot
			{
				OFFSET -0.577356 -83.370262 -6.520700
				CHANNELS 3 Xrotation Yrotation Zrotation
				JOINT mixamorig:LeftToeBase
				{
					OFFSET 0.750401 -20.798306 25.135401
					CHANNELS 3 Xrotation Yrotation Zrotation
					JOINT mixamorig:LeftToe_End
					{
						OFFSET -0.000500 0.001200 19.917799
						CHANNELS 3 Xrotation Yrotation Zrotation
						End Site
						{
							OFFSET 0.000000 19.917805 0.000000
						}
					}
				}
			}
		}
	}
	JOINT mixamorig:RightUpLeg
	{
		OFFSET -18.162500 -13.585098 -0.041000
		CHANNELS 3 Xrotation Yrotation Zrotation
		JOINT mixamorig:RightLeg
		{
			OFFSET -0.595024 -80.945297 -3.631900
			CHANNELS 3 Xrotation Yrotation Zrotation
			JOINT mixamorig:RightFoot
			{
				OFFSET 0.595024 -83.218193 -6.561200
				CHANNELS 3 Xrotation Yrotation Zrotation
				JOINT mixamorig:RightToeBase
				{
					OFFSET -0.753601 -20.807106 25.115000
					CHANNELS 3 Xrotation Yrotation Zrotation
					JOINT mixamorig:RightToe_End
					{
						OFFSET 0.000299 0.001700 19.918200
						CHANNELS 3 Xrotation Yrotation Zrotation
						End Site
						{
							OFFSET 0.000000 19.918203 0.000000
						}
					}
				}
			}
		}
	}
}
MOTION
Frames: 4
Frame Time: 0.033333
-0.692020 193.359146 4.189070 -2.011057 -1.776453 -1.552282 0.114294 -0.094902 0.801215 0.209718 -0.167103 1.312119 0.209366 -0.167692 1.312112 -0.019239 0.360673 0.121461 -9.512453 1.962310 0.032951 -0.000001 0.000000 0.000000 -0.000001 0.000000 0.000000 -0.000001 0.000000 0.000000 0.393614 5.366177 -7.142163 14.242598 -34.650236 -63.151506 0.000008 -22.341776 -0.000017 -20.724406 9.618562 -8.194578 -0.336400 1.462156 -32.332234 0.784549 3.196934 -27.570180 0.011059 0.390938 -3.241204 -0.000000 -0.000002 -0.000001 -2.005711 3.038907 3.723262 20.263261 45.707513 -11.275952 10.323489 26.496479 -3.588212 0.000000 0.000004 0.000000 -2.640537 -0.656169 -40.224162 0.530757 2.655495 -22.601791 -0.000002 -0.000003 -0.000005 -0.000000 -0.000001 -0.000003 1.340241 4.087044 -36.763237 0.824834 3.272781 -28.283733 0.034942 0.694201 -5.762412 -0.000000 0.000001 -0.000001 3.884493 7.081499 -40.384156 0.629924 -1.192629 -24.984470 0.017725 0.494842 -4.104066 -0.000002 -0.000001 -0.000001 0.709808 -4.313709 11.466717 8.774336 24.145876 59.695109 0.000001 20.285430 0.000012 -4.404516 1.412552 6.340085 0.004690 -2.244012 35.661985 1.265064 -4.004014 35.055642 0.070687 -0.990916 8.159475 0.000001 0.000001 -0.000000 -10.721109 -3.589016 -7.634682 15.552365 -33.354662 -2.319491 -4.144787 8.228390 -1.921203 -0.000002 0.000000 0.000001 -5.110784 2.215957 45.622068 0.825906 -3.291822 28.161780 0.012063 -0.410245 3.368286 -0.000000 0.000000 -0.000000 3.435296 -7.152910 34.330703 0.756209 -3.158426 26.923054 0.047107 -0.809649 6.659016 0.000002 -0.000002 -0.000005 -0.428413 -2.087188 40.813976 1.317469 -4.077499 35.799316 0.173379 -1.546080 12.795786 0.000000 0.000000 -0.000000 -15.184407 13.291523 14.820834 30.528811 7.372415 2.367171 -12.427457 1.828209 -12.887522 -0.000042 0.000005 -0.000007 -0.000000 -0.000002 -0.000000 -14.840138 -12.166683 -9.723672 30.813954 -8.895865 -0.995910 -12.298745 -2.018773 10.285882 -0.000031 0.000000 -0.000004 -0.000000 0.000000 -0.000000 
-0.673151 193.363998 4.197014 -2.022051 -1.814427 -1.543624 0.114047 -0.095317 0.806356 0.208105 -0.167935 1.319579 0.207767 -0.168478 1.319561 0.024700 0.365897 0.092638 -9.501506 1.949864 0.034945 -0.000001 0.000000 -0.000000 -0.000001 0.000000 -0.000000 -0.000001 0.000000 -0.000000 0.397304 5.378742 -7.195391 14.194923 -34.652500 -63.167898 -0.000009 -22.154255 0.000009 -20.870323 9.391192 -8.273557 -0.338198 1.459643 -32.336486 0.775706 3.179954 -27.411009 0.010898 0.388051 -3.217306 0.000002 0.000002 0.000001 -1.908925 3.182392 3.895649 20.266822 45.711779 -11.278656 10.327569 26.503176 -3.590497 -0.000001 0.000002 0.000001 -2.641148 -0.657201 -40.222543 0.528669 2.650482 -22.556756 0.000000 0.000005 0.000002 -0.000001 0.000001 0.000005 1.337135 4.082906 -36.776634 0.825518 3.274063 -28.295877 0.034636 0.691212 -5.737515 -0.000001 -0.000001 -0.000003 3.883694 7.080521 -40.384518 0.629638 -1.193224 -24.978980 0.017882 0.496954 -4.121609 -0.000002 -0.000002 0.000002 0.705477 -4.311533 11.401345 8.834358 24.170247 59.740844 0.000006 20.370315 -0.000021 -4.591015 1.465422 6.191685 0.002836 -2.242097 35.672254 1.263391 -4.001640 35.031688 0.070771 -0.989528 8.148253 0.000005 0.000002 0.000001 -10.698500 -3.622002 -7.665322 15.552361 -33.354658 -2.319493 -4.145357 8.230048 -1.921132 -0.000002 0.000001 0.000001 -5.102240 2.201319 45.645123 0.825730 -3.291510 28.158705 0.012108 -0.411156 3.375837 -0.000001 0.000001 0.000000 3.425025 -7.139385 34.319631 0.756835 -3.159668 26.934441 0.048174 -0.807611 6.643527 -0.000001 -0.000001 0.000004 -0.433286 -2.079528 40.791587 1.314789 -4.073794 35.761703 0.172959 -1.544244 12.780332 0.000002 -0.000001 -0.000000 -15.143574 13.297482 14.791036 30.506476 7.399136 2.381107 -12.428781 1.833576 -12.896224 -0.000001 0.000007 0.000003 0.000000 -0.000000 0.000000 -14.838446 -12.187007 -9.767680 30.808613 -8.887117 -0.967856 -12.295396 -1.952154 10.278026 -0.000022 -0.000005 -0.000006 -0.000000 0.000000 -0.000000 
-0.670747 193.343124 4.187604 -2.021994 -1.860273 -1.556897 0.116402 -0.097000 0.806246 0.211632 -0.170763 1.318035 0.211290 -0.171294 1.318007 0.036688 0.350162 0.119140 -9.362455 1.913418 0.011700 0.000000 -0.000000 -0.000000 0.000000 -0.000000 -0.000000 0.000000 -0.000000 -0.000000 0.396070 5.374860 -7.177669 14.149872 -34.627078 -63.195410 0.000015 -22.081566 0.000012 -20.758972 9.433811 -8.365044 -0.332936 1.466859 -32.322723 0.771771 3.172353 -27.339950 0.010745 0.385357 -3.194935 -0.000003 0.000002 0.000001 -1.995123 3.051724 3.781483 20.265040 45.709627 -11.277298 10.329711 26.506677 -3.591699 -0.000002 -0.000000 -0.000002 -2.664650 -0.682603 -40.240292 0.527643 2.648017 -22.534594 0.000000 -0.000003 -0.000002 -0.000000 -0.000001 -0.000002 1.342566 4.090163 -36.776211 0.825663 3.274350 -28.298529 0.034568 0.690521 -5.731803 -0.000000 -0.000001 -0.000004 3.877915 7.075060 -40.371011 0.628808 -1.195017 -24.962605 0.017423 0.490566 -4.068621 -0.000001 0.000000 0.000005 0.707754 -4.319882 11.435221 8.937862 24.231078 59.672877 -0.000014 20.513792 0.000038 -4.580053 1.376356 6.202485 0.006058 -2.246779 35.674297 1.262985 -4.001056 35.025787 0.070139 -0.987891 8.134268 0.000002 0.000001 0.000001 -10.682218 -3.646705 -7.683283 15.552361 -33.354662 -2.319490 -4.143734 8.225373 -1.921275 -0.000001 0.000001 -0.000002 -5.113440 2.213514 45.642500 0.826267 -3.292526 28.168221 0.012119 -0.411196 3.376076 0.000003 -0.000001 0.000000 3.429089 -7.144549 34.325754 0.756042 -3.158100 26.919975 0.047811 -0.808696 6.652122 0.000000 0.000001 0.000000 -0.448787 -2.058914 40.763378 1.313930 -4.072601 35.749538 0.172520 -1.542308 12.764024 0.000001 0.000001 0.000002 -15.166329 13.295132 14.818107 30.563399 7.415016 2.371119 -12.460898 1.835349 -12.903137 -0.000017 -0.000000 0.000003 -0.000000 0.000000 -0.000000 -14.865775 -12.127535 -9.684843 30.841583 -8.907648 -1.072710 -12.299070 -1.994750 10.328612 -0.000049 0.000010 0.000000 -0.000000 0.000002 0.000000 
-0.668229 193.328232 4.181194 -2.023248 -1.892970 -1.571210 0.119157 -0.099804 0.807412 0.216072 -0.175541 1.317936 0.215726 -0.176062 1.317895 0.034256 0.341483 0.141322 -9.342821 1.896957 0.016108 -0.000000 -0.000000 0.000000 -0.000000 -0.000000 0.000000 -0.000000 -0.000000 0.000000 0.394930 5.366653 -7.160557 14.129021 -34.607834 -63.205676 0.000011 -22.060784 0.000016 -20.699013 9.471477 -8.400425 -0.342503 1.448844 -32.290757 0.773027 3.174794 -27.362776 0.010514 0.381225 -3.160689 -0.000000 0.000001 0.000002 -2.002433 3.040845 3.769674 20.244607 45.685175 -11.261869 10.326210 26.500992 -3.589730 0.000000 0.000001 -0.000001 -2.691590 -0.711506 -40.261513 0.540000 2.677560 -22.800444 -0.000000 0.000001 -0.000003 -0.000003 -0.000001 0.000001 1.361137 4.114910 -36.725756 0.825493 3.274028 -28.295457 0.034397 0.688782 -5.717244 0.000001 -0.000001 0.000001 3.893263 7.095076 -40.346942 0.629780 -1.192923 -24.981726 0.017448 0.490867 -4.071024 0.000001 -0.000000 0.000001 0.713031 -4.324685 11.514572 9.031478 24.253213 59.554776 -0.000003 20.598923 0.000003 -4.410280 1.300306 6.388112 0.011780 -2.254915 35.675844 1.261939 -3.999581 35.010833 0.069250 -0.986531 8.122233 0.000002 0.000001 0.000000 -10.707224 -3.605353 -7.672393 15.552363 -33.354658 -2.319493 -4.146458 8.233236 -1.921098 -0.000001 0.000001 0.000001 -5.107731 2.223583 45.579485 0.825197 -3.290515 28.149376 0.011993 -0.409059 3.358591 -0.000000 -0.000000 -0.000003 3.399953 -7.111457 34.249680 0.754855 -3.155766 26.898487 0.050741 -0.809002 6.657361 0.000000 -0.000000 0.000004 -0.449157 -2.050729 40.674777 1.313904 -4.072561 35.749200 0.172421 -1.541894 12.760497 -0.000002 -0.000000 0.000001 -15.185934 13.300532 14.854120 30.608772 7.409872 2.349522 -12.487587 1.834476 -12.898513 -0.000024 0.000005 -0.000004 -0.000000 -0.000000 -0.000000 -14.875513 -12.059911 -9.583883 30.852880 -8.935718 -1.196324 -12.294156 -2.055514 10.389081 -0.000010 -0.000003 0.000002 0.000000 -0.000000 -0.000000 
